<svg xmlns="http://www.w3.org/2000/svg" xmlns:xlink="http://www.w3.org/1999/xlink" width="412" height="44pt" viewBox="0 0 309 44"><g id="graph0" class="graph" transform="scale(1 1) rotate(0) translate(4 40)"><title>varnishtest</title><polygon fill="#fff" stroke="none" points="-4 4 -4 -40 305 -40 305 4 -4 4"/><g id="node1" class="node"><title>client</title><polygon fill="none" stroke="red" points="66 -36 0 -36 0 0 66 0 66 -36"/><text x="33" y="-14.3" font-family="Times,serif" font-size="14" text-anchor="middle">Client c1</text></g><g id="node2" class="node"><title>varnish</title><polygon fill="none" stroke="purple" points="197 -36 102 -36 102 0 197 0 197 -36"/><text x="149.5" y="-14.3" font-family="Times,serif" font-size="14" text-anchor="middle">Varnishtest v1</text></g><g id="edge1" class="edge"><title>client-&gt;varnish</title><path fill="none" stroke="red" d="M66.1993,-11.8607C74.0913,-11.4504 82.7743,-11.2468 91.4512,-11.25"/><polygon fill="red" stroke="red" points="91.553 -14.751 101.586 -11.349 91.621 -7.751 91.553 -14.751"/></g><g id="edge2" class="edge"><title>varnish-&gt;client</title><path fill="none" stroke="purple" d="M101.586,-24.6512C93.2224,-24.8126 84.5538,-24.7762 76.3272,-24.5419"/><polygon fill="purple" stroke="purple" points="76.331 -21.039 66.199 -24.139 76.052 -28.034 76.331 -21.039"/></g><g id="node3" class="node"><title>server</title><polygon fill="none" stroke="#00f" points="301 -36 233 -36 233 0 301 0 301 -36"/><text x="267" y="-14.3" font-family="Times,serif" font-size="14" text-anchor="middle">Server s1</text></g><g id="edge3" class="edge"><title>varnish-&gt;server</title><path fill="none" stroke="purple" d="M197.145,-11.3622C205.509,-11.1913 214.196,-11.2157 222.469,-11.4352"/><polygon fill="purple" stroke="purple" points="222.545 -14.941 232.669 -11.818 222.807 -7.945 222.545 -14.941"/></g><g id="edge4" class="edge"><title>server-&gt;varnish</title><path fill="none" stroke="#00f" d="M232.669,-24.1822C224.706,-24.5752 215.983,-24.7642 207.29,-24.7492"/><polygon fill="#00f" stroke="#00f" points="207.183 -21.248 197.145 -24.638 207.106 -28.247 207.183 -21.248"/></g></g></svg>
